<mxfile host="drawio-plugin" modified="2021-09-22T14:16:03.444Z" agent="5.0 (X11; Linux x86_64) AppleWebKit/537.36 (KHTML, like Gecko) Chrome/89.0.4389.114 Safari/537.36" etag="-PKxtKNzyK8eIldP1u_F" version="14.7.4" type="embed"><diagram id="G4t1x3i_cumIOjZ8GDXV" name="Page-1"><mxGraphModel dx="915" dy="830" grid="1" gridSize="10" guides="1" tooltips="1" connect="1" arrows="1" fold="1" page="1" pageScale="1" pageWidth="850" pageHeight="1100" math="0" shadow="0"><root><mxCell id="0"/><mxCell id="1" parent="0"/><mxCell id="4NMri5ObQx2eB0Vx6lmc-10" value="" style="edgeStyle=orthogonalEdgeStyle;rounded=0;orthogonalLoop=1;jettySize=auto;html=1;entryX=0;entryY=0.5;entryDx=0;entryDy=0;startArrow=classic;startFill=1;" parent="1" source="4NMri5ObQx2eB0Vx6lmc-1" target="4NMri5ObQx2eB0Vx6lmc-4" edge="1"><mxGeometry relative="1" as="geometry"/></mxCell><mxCell id="Gfm62hS2zhEuvZ2v64Gk-5" value="Get addresses" style="edgeStyle=orthogonalEdgeStyle;rounded=0;orthogonalLoop=1;jettySize=auto;html=1;entryX=0;entryY=0.5;entryDx=0;entryDy=0;" parent="1" source="4NMri5ObQx2eB0Vx6lmc-1" target="Gfm62hS2zhEuvZ2v64Gk-1" edge="1"><mxGeometry x="-0.2" relative="1" as="geometry"><Array as="points"><mxPoint x="55" y="170"/></Array><mxPoint as="offset"/></mxGeometry></mxCell><mxCell id="oFcI5581ewMWiinqv_Lf-3" value="Get messages" style="edgeStyle=orthogonalEdgeStyle;rounded=0;orthogonalLoop=1;jettySize=auto;html=1;entryX=0;entryY=0.5;entryDx=0;entryDy=0;" parent="1" source="4NMri5ObQx2eB0Vx6lmc-1" target="oFcI5581ewMWiinqv_Lf-1" edge="1"><mxGeometry relative="1" as="geometry"><Array as="points"><mxPoint x="115" y="340"/><mxPoint x="115" y="290"/></Array></mxGeometry></mxCell><mxCell id="4NMri5ObQx2eB0Vx6lmc-1" value="Client" style="shape=umlActor;verticalLabelPosition=bottom;verticalAlign=top;html=1;outlineConnect=0;" parent="1" vertex="1"><mxGeometry x="40" y="330" width="30" height="60" as="geometry"/></mxCell><mxCell id="4NMri5ObQx2eB0Vx6lmc-13" value="Send message&lt;br&gt;Push message" style="edgeStyle=orthogonalEdgeStyle;rounded=0;orthogonalLoop=1;jettySize=auto;html=1;entryX=0;entryY=0.75;entryDx=0;entryDy=0;startArrow=classic;startFill=1;" parent="1" source="4NMri5ObQx2eB0Vx6lmc-3" target="4NMri5ObQx2eB0Vx6lmc-4" edge="1"><mxGeometry relative="1" as="geometry"/></mxCell><mxCell id="4NMri5ObQx2eB0Vx6lmc-3" value="Client" style="shape=umlActor;verticalLabelPosition=bottom;verticalAlign=top;html=1;outlineConnect=0;" parent="1" vertex="1"><mxGeometry x="40" y="440" width="30" height="60" as="geometry"/></mxCell><mxCell id="4NMri5ObQx2eB0Vx6lmc-16" value="PUB to recipient partition&lt;br&gt;&lt;div&gt;SUB to assigned partitions&lt;/div&gt;" style="rounded=0;orthogonalLoop=1;jettySize=auto;html=1;startArrow=classic;startFill=1;exitX=1;exitY=0.75;exitDx=0;exitDy=0;" parent="1" source="4NMri5ObQx2eB0Vx6lmc-4" edge="1"><mxGeometry x="-0.0045" y="2" relative="1" as="geometry"><mxPoint y="-1" as="offset"/><mxPoint x="519" y="415" as="targetPoint"/></mxGeometry></mxCell><mxCell id="4NMri5ObQx2eB0Vx6lmc-4" value="&lt;font style=&quot;font-size: 12px&quot;&gt;Messaging&lt;/font&gt;" style="rounded=1;whiteSpace=wrap;html=1;gradientColor=#ffa500;fillColor=#ffcd28;strokeColor=#d79b00;" parent="1" vertex="1"><mxGeometry x="160" y="370" width="120" height="60" as="geometry"/></mxCell><mxCell id="4NMri5ObQx2eB0Vx6lmc-9" value="PUB/SUB&lt;br&gt;backplane" style="strokeWidth=2;html=1;shape=mxgraph.flowchart.direct_data;whiteSpace=wrap;gradientColor=#97d077;fillColor=#d5e8d4;strokeColor=#82b366;" parent="1" vertex="1"><mxGeometry x="520" y="370" width="120" height="80" as="geometry"/></mxCell><mxCell id="Gfm62hS2zhEuvZ2v64Gk-1" value="&lt;font style=&quot;font-size: 12px&quot;&gt;Connect&lt;/font&gt;" style="rounded=1;whiteSpace=wrap;html=1;gradientColor=#ffa500;fillColor=#ffcd28;strokeColor=#d79b00;" parent="1" vertex="1"><mxGeometry x="160" y="140" width="120" height="60" as="geometry"/></mxCell><mxCell id="QVO6qr5AluIkjkF2SAql-7" value="Update" style="edgeStyle=orthogonalEdgeStyle;rounded=0;orthogonalLoop=1;jettySize=auto;html=1;entryX=1;entryY=0.5;entryDx=0;entryDy=0;entryPerimeter=0;exitX=0.5;exitY=0;exitDx=0;exitDy=0;" parent="1" source="Gfm62hS2zhEuvZ2v64Gk-13" edge="1"><mxGeometry x="0.2308" relative="1" as="geometry"><mxPoint as="offset"/><mxPoint x="640" y="170" as="targetPoint"/><Array as="points"><mxPoint x="740" y="170"/></Array></mxGeometry></mxCell><mxCell id="Gfm62hS2zhEuvZ2v64Gk-13" value="Configurator" style="rounded=1;whiteSpace=wrap;html=1;gradientColor=#ffa500;fillColor=#ffcd28;strokeColor=#d79b00;" parent="1" vertex="1"><mxGeometry x="680" y="200" width="120" height="60" as="geometry"/></mxCell><mxCell id="QVO6qr5AluIkjkF2SAql-2" value="Config DB" style="shape=cylinder3;whiteSpace=wrap;html=1;boundedLbl=1;backgroundOutline=1;size=15;gradientColor=#7ea6e0;fillColor=#dae8fc;strokeColor=#6c8ebf;" parent="1" vertex="1"><mxGeometry x="520" y="120" width="120" height="80" as="geometry"/></mxCell><mxCell id="zEOiwxzGmeE4_qA-A_0B-1" value="Messages for user ID go into a dedicated partition" style="shape=note;whiteSpace=wrap;html=1;backgroundOutline=1;darkOpacity=0.05;align=left;gradientColor=#b3b3b3;fillColor=#f5f5f5;strokeColor=#666666;" parent="1" vertex="1"><mxGeometry x="500" y="330" width="300" height="30" as="geometry"/></mxCell><mxCell id="zEOiwxzGmeE4_qA-A_0B-2" value="Store:&lt;br&gt;- partition count&lt;br&gt;- key-value pairs&amp;nbsp;(server ID -&amp;gt; partitions)&lt;br&gt;- key-value pairs&amp;nbsp;(server ID -&amp;gt; address)&lt;br&gt;- history settings" style="shape=note;whiteSpace=wrap;html=1;backgroundOutline=1;darkOpacity=0.05;align=left;gradientColor=#b3b3b3;fillColor=#f5f5f5;strokeColor=#666666;" parent="1" vertex="1"><mxGeometry x="520" y="40" width="280" height="70" as="geometry"/></mxCell><mxCell id="zEOiwxzGmeE4_qA-A_0B-3" value="Client is assigned to a Messaging server which is subscribed to partitions only for messages for the client user" style="shape=note;whiteSpace=wrap;html=1;backgroundOutline=1;darkOpacity=0.05;align=left;gradientColor=#b3b3b3;fillColor=#f5f5f5;strokeColor=#666666;" parent="1" vertex="1"><mxGeometry x="160" y="70" width="320" height="50" as="geometry"/></mxCell><mxCell id="oFcI5581ewMWiinqv_Lf-1" value="&lt;font style=&quot;font-size: 12px&quot;&gt;History&lt;/font&gt;" style="rounded=1;whiteSpace=wrap;html=1;gradientColor=#ffa500;fillColor=#ffcd28;strokeColor=#d79b00;" parent="1" vertex="1"><mxGeometry x="160" y="260" width="120" height="60" as="geometry"/></mxCell><mxCell id="2" value="&lt;font style=&quot;font-size: 10px&quot;&gt;SUB config&lt;br&gt;changes&lt;/font&gt;" style="rounded=1;whiteSpace=wrap;html=1;gradientColor=#97d077;fillColor=#d5e8d4;strokeColor=#82b366;" parent="1" vertex="1"><mxGeometry x="270" y="130" width="60" height="40" as="geometry"/></mxCell><mxCell id="3" value="&lt;font style=&quot;font-size: 10px&quot;&gt;SUB config&lt;br&gt;changes&lt;/font&gt;" style="rounded=1;whiteSpace=wrap;html=1;gradientColor=#97d077;fillColor=#d5e8d4;strokeColor=#82b366;" parent="1" vertex="1"><mxGeometry x="270" y="250" width="60" height="40" as="geometry"/></mxCell><mxCell id="4" value="&lt;font style=&quot;font-size: 10px&quot;&gt;SUB config&lt;br&gt;changes&lt;/font&gt;" style="rounded=1;whiteSpace=wrap;html=1;gradientColor=#97d077;fillColor=#d5e8d4;strokeColor=#82b366;" parent="1" vertex="1"><mxGeometry x="270" y="360" width="60" height="40" as="geometry"/></mxCell><mxCell id="5" value="&lt;font style=&quot;font-size: 10px&quot;&gt;SUB config&lt;br&gt;changes&lt;/font&gt;" style="rounded=1;whiteSpace=wrap;html=1;gradientColor=#97d077;fillColor=#d5e8d4;strokeColor=#82b366;" parent="1" vertex="1"><mxGeometry x="470" y="150" width="60" height="40" as="geometry"/></mxCell></root></mxGraphModel></diagram></mxfile>